<svg id="图层_1" data-name="图层 1" xmlns="http://www.w3.org/2000/svg" viewBox="0 0 1141.49 303.77"><defs><style>.cls-1{fill:#00785a;}.cls-2{font-size:268.62px;font-family:CenturyGothic-Bold, Century Gothic;font-weight:700;}</style></defs><title>eolink</title><path class="cls-1" d="M276,151,233,76a39.85,39.85,0,0,0-34.57-20.13H112.56A39.85,39.85,0,0,0,78,76L35.05,151a40.52,40.52,0,0,0,0,40.24l42.94,75a39.86,39.86,0,0,0,34.57,20.12h85.88A39.86,39.86,0,0,0,233,266.24l42.94-75A40.52,40.52,0,0,0,276,151Zm-71.2-64.62a16.75,16.75,0,1,1-16.61,16.74A16.67,16.67,0,0,1,204.75,86.38Zm-79.8,136h31.94a16.75,16.75,0,0,1,0,33.49H115.41a16.65,16.65,0,0,1-4.26-.58l-.17,0c-.4-.12-.8-.25-1.19-.39l-.45-.16-.86-.37-.75-.37-.49-.27c-.36-.2-.71-.42-1-.65l-.13-.08a16.72,16.72,0,0,1-5.1-5.49l-38.91-68h0A16.82,16.82,0,0,1,60,173.25a.17.17,0,0,0,0-.07c0-.29-.06-.59-.08-.89v-.12c0-.14,0-.29,0-.44s0-.14,0-.21,0-.26,0-.4,0-.27,0-.4,0-.2,0-.29,0-.23,0-.34a1.09,1.09,0,0,1,0-.18c0-.28,0-.55.07-.82,0-.1,0-.21.05-.31s0-.26,0-.38v-.06c.05-.29.1-.58.16-.86,0-.11.06-.22.08-.32.11-.43.22-.86.35-1.27l.13-.36c.14-.39.29-.79.46-1.17.06-.15.14-.3.21-.45l.05-.09,0-.07c.14-.29.28-.57.44-.85a1.51,1.51,0,0,1,.09-.18l38.91-68a16.57,16.57,0,0,1,9.4-7.58l.2-.06q.63-.19,1.26-.33l.4-.09c.37-.07.75-.12,1.13-.17l.54-.07c.34,0,.68,0,1,0l.5,0h41.48a16.67,16.67,0,0,1,16.61,16.74h0a16.68,16.68,0,0,1-16.61,16.75H124.94l-19.76,34.51h81.55a16.75,16.75,0,0,1,0,33.49H105.19Zm79.8,33.49a16.75,16.75,0,1,1,16.61-16.75A16.68,16.68,0,0,1,204.75,255.87Zm29.84-68a16.75,16.75,0,1,1,16.6-16.75A16.68,16.68,0,0,1,234.59,187.87Z"/><text class="cls-2" transform="translate(313.33 241.83)">eo<tspan class="cls-1" x="343.9" y="0">link</tspan></text></svg>