<svg id="图层_1" data-name="图层 1" xmlns="http://www.w3.org/2000/svg" viewBox="0 0 765.46 211.27"><defs><style>.cls-1{fill:#00785a;}.cls-2{fill:#fff;}</style></defs><title>eoapi</title><path class="cls-1" d="M719.24,51.27h25.61V155.63H719.24Z"/><path class="cls-1" d="M719.24,10.06h25.61V34.85H719.24Z"/><path d="M416.15,46a55.16,55.16,0,1,0,55.16,55.16A55.17,55.17,0,0,0,416.15,46Zm0,85.1A29.87,29.87,0,1,1,446,101.22,29.87,29.87,0,0,1,416.15,131.09Z"/><path class="cls-1" d="M564.32,45.22v9.05a55.16,55.16,0,1,0,0,92.41v8.95h25.61V45.22Zm-30.11,85.19a29.87,29.87,0,1,1,29.86-29.87A29.87,29.87,0,0,1,534.21,130.41Z"/><path class="cls-1" d="M656.33,45.27a54.84,54.84,0,0,0-29.94,8.84V45.22H600.78V204.37h25.61V146.75A55.16,55.16,0,1,0,656.33,45.27Zm0,85.09a29.87,29.87,0,1,1,29.87-29.87A29.87,29.87,0,0,1,656.33,130.36Z"/><path d="M330.77,113.41h21.07a55.2,55.2,0,1,0-12.54,24.31l-26.37-10.66a29.86,29.86,0,0,1-42.09-13.65h59.93ZM298.08,71.28a29.87,29.87,0,0,1,27,17.17H271A29.88,29.88,0,0,1,298.08,71.28Z"/><path class="cls-1" d="M143.51,16.93H72.67A26.79,26.79,0,0,0,49.43,30.39L13.89,92.28a26.78,26.78,0,0,0,0,26.69l35.54,61.9a26.81,26.81,0,0,0,23.24,13.46h70.84a26.81,26.81,0,0,0,23.24-13.46L202.3,119a26.83,26.83,0,0,0,0-26.69L166.75,30.39A26.79,26.79,0,0,0,143.51,16.93Z"/><path class="cls-2" d="M108.77,143.81H88.34L74.63,120.06h56.69a12.24,12.24,0,0,0,12.25-12.24h0a12.24,12.24,0,0,0-12.25-12.24H73.76L88.12,70.71h20.65a12.24,12.24,0,1,0,0-24.48H82.55a12.19,12.19,0,0,0-8.28,2,3.62,3.62,0,0,0-.32.22c-.14.1-.27.19-.4.3a12.2,12.2,0,0,0-3.81,4.83L42.82,100.21a12.23,12.23,0,0,0-.45,12.94l28.26,48.94a12.21,12.21,0,0,0,9.83,6.09,11.31,11.31,0,0,0,1.55.11h26.76A12.24,12.24,0,0,0,121,156.05h0A12.24,12.24,0,0,0,108.77,143.81Z"/><circle class="cls-2" cx="143.68" cy="58.39" r="12.55" transform="translate(-9.57 34.57) rotate(-13.28)"/><circle class="cls-2" cx="166.14" cy="107.82" r="12.55" transform="translate(-20.33 41.06) rotate(-13.28)"/><circle class="cls-2" cx="143.68" cy="155.12" r="12.55" transform="matrix(0.97, -0.23, 0.23, 0.97, -31.8, 37.16)"/></svg>