<?xml version="1.0" standalone="no"?><!DOCTYPE svg PUBLIC "-//W3C//DTD SVG 1.1//EN" "http://www.w3.org/Graphics/SVG/1.1/DTD/svg11.dtd"><svg t="1650423135535" class="icon" viewBox="0 0 1024 1024" version="1.1" xmlns="http://www.w3.org/2000/svg" p-id="31389" xmlns:xlink="http://www.w3.org/1999/xlink" width="128" height="128"><defs><style type="text/css">@font-face { font-family: feedback-iconfont; src: url("//at.alicdn.com/t/font_1031158_u69w8yhxdu.woff2?t=1630033759944") format("woff2"), url("//at.alicdn.com/t/font_1031158_u69w8yhxdu.woff?t=1630033759944") format("woff"), url("//at.alicdn.com/t/font_1031158_u69w8yhxdu.ttf?t=1630033759944") format("truetype"); }
</style></defs><path d="M170.666667 341.333333l170.666667 0L341.333333 170.666667 170.666667 170.666667 170.666667 341.333333zM426.666667 853.333333l170.666667 0 0-170.666667-170.666667 0L426.666667 853.333333zM170.666667 853.333333l170.666667 0 0-170.666667L170.666667 682.666667 170.666667 853.333333zM170.666667 597.333333l170.666667 0 0-170.666667L170.666667 426.666667 170.666667 597.333333zM426.666667 597.333333l170.666667 0 0-170.666667-170.666667 0L426.666667 597.333333zM682.666667 170.666667l0 170.666667 170.666667 0L853.333333 170.666667 682.666667 170.666667zM426.666667 341.333333l170.666667 0L597.333333 170.666667l-170.666667 0L426.666667 341.333333zM682.666667 597.333333l170.666667 0 0-170.666667-170.666667 0L682.666667 597.333333zM682.666667 853.333333l170.666667 0 0-170.666667-170.666667 0L682.666667 853.333333z" p-id="31390"></path></svg>