<!--?xml version="1.0" encoding="UTF-8" standalone="no"?-->
<svg viewBox="0 0 17 16" version="1.1" xmlns="http://www.w3.org/2000/svg" xmlns:xlink="http://www.w3.org/1999/xlink" class="si-glyph si-glyph-suitcase-person">
    <!-- Generator: Sketch 3.0.3 (7891) - http://www.bohemiancoding.com/sketch -->
    <title>807</title>
    
    <defs></defs>
    <g stroke="none" stroke-width="1" fill="none" fill-rule="evenodd">
        <g transform="translate(1.000000, 1.000000)" fill="#434343">
            <path d="M1.437,2 C0.643,2 -0.00100000005,2.65530199 -0.00100000005,3.46485198 L-0.00100000005,11.535148 C-0.00100000005,12.344698 0.643,13 1.437,13 L14.562,13 C15.357,13 16,12.344698 16,11.535148 L16,3.46485198 C16,2.65530199 15.357,2 14.562,2 L1.437,2 Z M7.997,3.932 C8.78,3.932 9.417,4.63 9.417,5.491 C9.417,6.352 8.78,8.001 7.997,8.001 C7.214,8.001 6.578,6.353 6.578,5.491 C6.578,4.63 7.214,3.932 7.997,3.932 L7.997,3.932 Z M11.931,11.117 L4.072,11.117 C4.072,11.117 3.938,7.946 5.955,7.946 C6.376,8.557 6.956,9.146 8.02,9.146 C9.086,9.146 9.594,8.552 10.012,7.932 C12.28,7.933 11.931,11.117 11.931,11.117 L11.931,11.117 Z" class="si-glyph-fill"></path>
            <path d="M6.143,1.617 C6.143,1.267 6.461,0.982 6.854,0.982 L9.182,0.982 C9.574,0.982 9.892,1.267 9.892,1.617 L9.892,2.097 L10.917,2.097 L10.917,1.12 C10.917,0.513 10.363,0.017 9.684,0.017 L6.278,0.017 C5.596,0.017 5.044,0.512 5.044,1.12 L5.044,2.097 L6.144,2.097 L6.144,1.617 L6.143,1.617 Z" class="si-glyph-fill"></path>
        </g>
    </g>
</svg>