<svg viewBox="0 0 194 194" xmlns="http://www.w3.org/2000/svg" data-name="图层 1"><defs><radialGradient gradientUnits="userSpaceOnUse" r="42.24" fy="144.196" fx="68.107" cy="153.04" cx="97.14" id="b"><stop stop-color="#35126a" offset="0"/><stop stop-color="#601268" offset=".11"/><stop stop-color="#cd1364" offset=".4"/><stop stop-color="#f91362" offset=".53"/><stop stop-color="#ff8e44" offset="1"/></radialGradient><clipPath id="a"><rect rx="50" height="194" width="194" data-name="矩形 1-12" fill="none"/></clipPath></defs><rect data-follow-fill="#142765" rx="50" height="194" width="194" data-name="矩形 1-12" fill="#142765"/><g clip-path="url(#a)"><path d="M179 194H15l31.42-54.41a73.11 73.11 0 0 0 11.7 6.41A97 97 0 0 0 97 153.8a96.93 96.93 0 0 0 38.88-7.8 73.11 73.11 0 0 0 11.66-6.41Z" fill="#ff5a00"/><path d="M151.16 194H42.85l15.27-48A97 97 0 0 0 97 153.8a96.93 96.93 0 0 0 38.88-7.8Z" fill="#fff"/><path d="M140.2 146.65c0 8.22-19.34 14.88-43.2 14.88s-43.2-6.66-43.2-14.88a5.54 5.54 0 0 1 .57-2.42c11.93 6 26.68 9.57 42.63 9.57s30.7-3.55 42.63-9.57a5.54 5.54 0 0 1 .57 2.42Z" fill="url(#b)"/><path d="M169 104.46c0 13.76-8.21 26.19-21.46 35.13a73.11 73.11 0 0 1-11.66 6.41A96.93 96.93 0 0 1 97 153.8a97 97 0 0 1-38.88-7.8 73.11 73.11 0 0 1-11.66-6.41C33.21 130.65 25 118.22 25 104.46c0-11.11 5.37-21.36 14.41-29.61l8.66-32.92a9.18 9.18 0 0 1 15.35-4.19L82.05 56.2a105 105 0 0 1 29.9 0l18.63-18.46a9.18 9.18 0 0 1 15.35 4.19l8.66 32.92c9.05 8.25 14.41 18.5 14.41 29.61Z" fill="#fff"/><rect rx="4.08" height="32.28" width="8.17" y="80.38" x="72.33"/><rect rx="4.08" height="32.28" width="8.17" y="80.38" x="113.5"/></g></svg>