<svg xmlns="http://www.w3.org/2000/svg" id="图层_1" data-name="图层 1" viewBox="0 0 1000 360.27">
  <defs>
    <style>
      .cls-1 {
        fill: #00785a;
      }

      .cls-2 {
        fill: #fff;
      }
    </style>
  </defs>
  <title>eoapi</title>
  <path class="cls-1" d="M719.24,51.27h25.61V155.63H719.24Z" />
  <path class="cls-1" d="M719.24,10.06h25.61V34.85H719.24Z" />
  <path
    d="M416.15,46a55.16,55.16,0,1,0,55.16,55.16A55.17,55.17,0,0,0,416.15,46Zm0,85.1A29.87,29.87,0,1,1,446,101.22,29.87,29.87,0,0,1,416.15,131.09Z" />
  <path class="cls-1"
    d="M564.32,45.22v9.05a55.16,55.16,0,1,0,0,92.41v8.95h25.61V45.22Zm-30.11,85.19a29.87,29.87,0,1,1,29.86-29.87A29.87,29.87,0,0,1,534.21,130.41Z" />
  <path class="cls-1"
    d="M656.33,45.27a54.84,54.84,0,0,0-29.94,8.84V45.22H600.78V204.37h25.61V146.75A55.16,55.16,0,1,0,656.33,45.27Zm0,85.09a29.87,29.87,0,1,1,29.87-29.87A29.87,29.87,0,0,1,656.33,130.36Z" />
  <path
    d="M330.77,113.41h21.07a55.2,55.2,0,1,0-12.54,24.31l-26.37-10.66a29.86,29.86,0,0,1-42.09-13.65h59.93ZM298.08,71.28a29.87,29.87,0,0,1,27,17.17H271A29.88,29.88,0,0,1,298.08,71.28Z" />
</svg>
