<svg id="图层_1" data-name="图层 1" xmlns="http://www.w3.org/2000/svg" viewBox="0 0 955.18 269.96"><defs><style>.cls-1{fill:#fff;}</style></defs><title>eoapi</title><path class="cls-1" d="M905.56,64.9h32.08V195.63H905.56Z"/><path class="cls-1" d="M905.56,13.28h32.08V44.33H905.56Z"/><path class="cls-1" d="M525.9,58.28A69.1,69.1,0,1,0,595,127.38,69.1,69.1,0,0,0,525.9,58.28Zm0,106.6a37.42,37.42,0,1,1,37.41-37.42A37.42,37.42,0,0,1,525.9,164.88Z"/><path class="cls-1" d="M711.5,57.32V68.65a69.1,69.1,0,1,0,0,115.76v11.22h32.08V57.32ZM673.78,164a37.42,37.42,0,1,1,37.41-37.42A37.42,37.42,0,0,1,673.78,164Z"/><path class="cls-1" d="M826.76,57.38a68.75,68.75,0,0,0-37.51,11.08V57.32H757.17V256.68h32.08V184.49A69.09,69.09,0,1,0,826.76,57.38Zm0,106.59a37.42,37.42,0,1,1,37.41-37.41A37.41,37.41,0,0,1,826.76,164Z"/><path class="cls-1" d="M419,142.74h26.38a69.11,69.11,0,1,0-15.7,30.45l-33-13.35a37.4,37.4,0,0,1-52.72-17.1H419ZM378,90a37.4,37.4,0,0,1,33.87,21.5H344.13A37.4,37.4,0,0,1,378,90Z"/><path class="cls-1" d="M258,116.27,213.49,38.74a33.57,33.57,0,0,0-29.11-16.86H95.64A33.56,33.56,0,0,0,66.53,38.74L22,116.27a33.6,33.6,0,0,0,0,33.44l44.53,77.53a33.55,33.55,0,0,0,29.11,16.85h88.74a33.56,33.56,0,0,0,29.11-16.85L258,149.71A33.55,33.55,0,0,0,258,116.27ZM184.58,58.09a15.72,15.72,0,1,1-15.72,15.72A15.72,15.72,0,0,1,184.58,58.09ZM156.19,196.15a15.33,15.33,0,0,1-15.33,15.33H107.34a15.7,15.7,0,0,1-2-.13,15.32,15.32,0,0,1-12.31-7.64l-35.4-61.3a15.32,15.32,0,0,1,.56-16.2L92,67.79a15.41,15.41,0,0,1,4.77-6.06l.5-.37.4-.27A15.3,15.3,0,0,1,108,58.59h32.84a15.33,15.33,0,0,1,0,30.66H115L97,120.4h72.11a15.33,15.33,0,0,1,15.33,15.34h0a15.33,15.33,0,0,1-15.33,15.33h-71l17.17,29.75h25.59a15.33,15.33,0,0,1,15.33,15.33Zm28.39,14.56A15.72,15.72,0,1,1,200.3,195,15.72,15.72,0,0,1,184.58,210.71Zm28.14-59.25a15.72,15.72,0,1,1,15.72-15.72A15.71,15.71,0,0,1,212.72,151.46Z"/></svg>